<?xml version="1.0" standalone="no"?>
<!DOCTYPE svg PUBLIC "-//W3C//DTD SVG 20010904//EN"
 "http://www.w3.org/TR/2001/REC-SVG-20010904/DTD/svg10.dtd">
<svg version="1.0" xmlns="http://www.w3.org/2000/svg"
 width="1306.000000pt" height="1306.000000pt" viewBox="0 0 1306.000000 1306.000000"
 preserveAspectRatio="xMidYMid meet">
<metadata>
Created by potrace 1.14, written by Peter Selinger 2001-2017
</metadata>
<g transform="translate(0.000000,1306.000000) scale(0.100000,-0.100000)"
fill="#000000" stroke="none">
<path d="M3233 12407 c-3 -5 -7 -4240 -3 -4357 0 -13 37 -15 277 -13 153 1
283 2 288 2 7 1 10 644 9 1911 0 1051 2 1907 6 1903 4 -5 18 -39 32 -78 14
-38 29 -79 34 -90 4 -11 8 -22 9 -25 1 -3 5 -13 8 -22 4 -10 10 -26 14 -35 3
-10 7 -20 8 -23 1 -3 5 -14 10 -25 4 -11 21 -56 37 -100 16 -44 33 -90 38
-102 5 -12 59 -156 120 -320 61 -164 115 -307 120 -318 10 -24 22 -56 26 -70
1 -5 17 -46 34 -90 18 -44 33 -84 34 -90 4 -13 15 -43 31 -80 11 -26 27 -71
30 -85 1 -3 9 -22 18 -44 9 -21 17 -44 17 -52 0 -7 5 -16 10 -19 6 -3 10 -16
10 -29 0 -12 4 -26 9 -32 4 -5 27 -61 50 -124 56 -151 82 -220 92 -245 14 -32
111 -289 113 -300 1 -5 10 -27 19 -49 9 -21 17 -41 17 -43 0 -8 171 -458 179
-471 5 -8 81 -12 281 -12 151 -1 285 -1 296 -1 18 1 27 17 55 94 18 50 34 94
34 97 1 3 7 19 14 35 7 17 25 64 41 105 76 206 127 341 141 375 5 11 22 58 39
105 17 47 37 99 45 117 8 17 15 36 15 42 0 6 4 19 9 29 5 9 19 46 32 82 12 36
26 69 31 75 4 5 8 15 8 23 0 8 6 28 14 45 7 18 19 48 26 67 7 19 16 44 20 55
74 185 310 819 310 833 0 7 4 12 8 12 5 0 9 6 9 13 1 17 131 365 149 400 8 15
13 27 9 27 -3 0 2 14 11 31 8 17 17 38 19 47 10 43 94 257 101 259 5 2 8 -830
8 -1902 -2 -1763 -1 -1905 15 -1905 23 -1 500 -1 534 -1 l27 1 0 2185 c0 1741
-3 2185 -12 2186 -7 0 -205 1 -440 2 l-426 2 -15 -35 c-8 -19 -20 -51 -27 -70
-7 -19 -19 -48 -25 -65 -7 -16 -31 -82 -55 -145 -23 -63 -46 -124 -51 -135 -4
-11 -31 -83 -60 -160 -28 -77 -57 -153 -64 -170 -7 -16 -31 -79 -54 -140 -79
-214 -112 -300 -126 -332 -8 -17 -15 -36 -15 -41 0 -6 -24 -73 -54 -150 -30
-76 -64 -164 -74 -193 -11 -30 -94 -253 -186 -495 -91 -243 -166 -447 -166
-453 0 -6 -4 -11 -8 -11 -5 0 -9 -6 -9 -12 -1 -17 -50 -148 -63 -170 -5 -10
-10 -23 -10 -29 0 -6 -6 -25 -14 -42 -7 -18 -22 -54 -31 -81 -15 -41 -19 -46
-25 -30 -90 241 -357 950 -405 1074 -20 52 -39 102 -40 110 -2 8 -41 112 -86
230 -45 118 -82 219 -84 225 -1 5 -8 24 -14 40 -20 47 -55 139 -56 145 0 3
-10 30 -22 60 -29 76 -71 187 -143 380 -34 91 -74 199 -90 240 -16 41 -59 156
-95 255 -37 99 -71 184 -75 189 -10 10 -870 14 -877 3z"/>
<path d="M9578 11395 c-2 -2 -30 -6 -63 -9 -33 -3 -71 -8 -85 -11 -14 -3 -41
-8 -60 -11 -19 -3 -43 -10 -52 -15 -10 -5 -18 -7 -18 -5 0 15 -287 -109 -310
-134 -3 -3 -27 -21 -55 -40 -92 -64 -196 -178 -292 -321 l-23 -33 1 139 c0 77
0 191 0 253 l-1 112 -270 0 -270 0 0 -47 c-4 -389 0 -3226 3 -3230 7 -6 527
-6 534 0 2 3 6 441 7 973 2 533 6 983 9 999 3 17 8 48 11 70 4 22 9 51 12 65
9 38 15 63 20 88 21 102 110 284 184 376 31 39 136 136 153 142 9 3 17 9 17
13 0 10 139 79 195 97 42 14 140 35 185 41 66 9 261 9 310 0 122 -22 190 -43
253 -78 13 -7 19 -5 24 7 9 23 10 65 2 95 -4 15 -3 32 1 40 5 7 6 17 3 22 -8
13 -7 112 1 125 3 6 3 13 -2 16 -6 3 -8 61 -2 61 5 0 7 36 2 39 -4 2 -7 34 -6
70 0 36 -2 66 -5 67 -3 0 -15 2 -26 3 -11 2 -40 6 -65 11 -42 7 -316 16 -322
10z"/>
<path d="M9820 8413 l0 -373 83 0 c206 -1 349 -1 430 -1 l87 1 -2 372 -3 371
-298 1 -297 1 0 -372z"/>
<path d="M10230 3779 l0 -2279 28 -1 c15 0 42 -1 60 -2 17 -1 32 0 32 3 0 4
16 4 35 2 l35 -4 0 2279 0 2279 -95 1 -95 0 0 -2278z"/>
<path d="M3238 5869 c-6 -4 -9 -786 -9 -2165 0 -1187 0 -2169 1 -2182 0 -24 2
-24 100 -21 14 0 32 0 40 0 8 -1 26 -1 40 0 14 0 32 0 40 0 8 -1 26 -1 40 0
14 0 32 0 40 0 8 -1 26 -1 40 0 14 0 32 0 40 0 8 -1 26 -1 40 0 14 0 31 0 38
0 78 -7 132 0 133 18 1 37 0 147 -1 156 -1 6 -2 15 -1 20 3 14 3 209 0 221 -1
5 -1 14 0 19 3 14 3 209 0 221 -1 5 -1 14 0 19 3 14 3 209 0 221 -1 5 -1 14 0
19 3 14 3 209 0 221 -1 5 -1 11 0 14 2 8 3 455 1 465 -2 6 -2 15 -1 20 3 14 3
209 0 221 -1 5 -1 14 0 19 5 29 2 206 -4 215 -3 5 -2 10 2 10 5 0 480 -472
1056 -1050 l1047 -1049 55 -4 c30 -1 55 1 55 5 0 3 13 3 29 -2 16 -4 32 -6 34
-4 5 5 77 6 140 1 20 -1 37 0 37 3 0 3 25 3 55 0 30 -3 59 -2 64 3 5 5 16 5
27 -1 10 -5 29 -6 44 -2 15 4 33 4 40 0 7 -4 25 -4 40 0 15 4 33 5 39 0 11 -6
101 -2 109 5 3 3 -411 421 -1670 1684 -351 351 -638 641 -638 644 0 3 6 12 14
19 21 21 266 251 316 298 25 23 101 94 170 159 69 65 143 135 165 156 22 20
96 90 165 155 69 65 141 132 160 150 37 34 233 219 325 305 29 28 103 97 165
155 62 58 141 132 176 165 35 33 111 105 170 160 59 55 123 116 144 135 20 19
71 67 114 106 57 54 72 73 59 75 -10 2 -181 4 -380 3 l-362 -1 -62 -59 c-128
-122 -160 -152 -279 -264 -68 -63 -142 -133 -165 -155 -82 -78 -301 -284 -345
-325 -85 -79 -261 -245 -314 -295 -45 -43 -108 -102 -376 -355 -26 -25 -103
-97 -170 -160 -68 -63 -139 -131 -159 -150 -20 -19 -49 -46 -64 -59 l-26 -24
0 179 c1 98 0 184 -1 189 -1 6 -2 15 -1 20 3 14 3 209 0 221 -1 5 -1 14 0 19
3 14 3 209 0 221 -1 5 -1 14 0 19 3 14 3 209 0 221 -1 5 -1 14 0 19 2 13 2
150 -1 479 l-3 260 -283 0 c-156 1 -288 -2 -294 -5z"/>
<path d="M7607 4864 c-4 -4 -29 -9 -55 -10 -104 -6 -235 -22 -308 -38 -23 -5
-87 -16 -119 -21 -11 -2 -21 -4 -22 -5 -2 -2 -6 -3 -10 -4 -5 -1 -31 -8 -59
-15 -29 -7 -58 -14 -65 -15 -8 -2 -21 -6 -29 -9 -8 -4 -24 -8 -35 -10 -11 -2
-27 -7 -35 -10 -29 -10 -235 -78 -248 -80 -7 -2 -17 -8 -23 -14 -13 -13 -19
-493 -6 -493 4 0 42 17 85 39 106 53 281 121 352 136 8 2 37 11 65 19 27 8 51
13 53 11 3 -2 17 2 32 10 15 8 30 12 32 10 3 -3 29 -1 59 5 96 17 105 18 195
26 143 11 328 7 424 -11 14 -3 36 -6 50 -9 40 -6 174 -47 185 -56 6 -5 15 -9
20 -11 91 -20 270 -170 332 -280 37 -64 69 -143 76 -186 3 -18 8 -37 12 -43 3
-5 8 -60 11 -120 l4 -110 -458 -1 c-251 0 -479 -2 -507 -4 -94 -6 -252 -24
-275 -30 -8 -2 -28 -7 -45 -10 -16 -2 -41 -7 -54 -10 -36 -7 -203 -54 -226
-64 -79 -33 -210 -101 -260 -134 -69 -46 -186 -162 -230 -227 -16 -25 -34 -48
-40 -52 -5 -4 -6 -8 -2 -8 5 0 0 -12 -11 -27 -20 -30 -70 -150 -76 -186 -3
-12 -6 -24 -7 -27 -1 -3 -3 -9 -4 -15 -2 -5 -4 -12 -5 -15 -3 -9 -9 -44 -16
-90 -3 -25 -8 -54 -10 -65 -6 -32 -5 -277 2 -310 3 -16 7 -39 9 -50 38 -246
166 -472 345 -605 18 -14 38 -29 44 -35 53 -46 308 -153 385 -160 14 -1 33 -5
41 -8 69 -25 342 -27 555 -2 82 9 218 49 344 101 152 62 361 246 470 414 l26
41 3 -249 2 -249 45 7 c25 4 47 5 50 2 7 -8 75 -8 75 0 0 4 13 3 29 -2 16 -4
32 -6 34 -4 3 3 27 5 53 4 45 -1 63 -1 97 0 6 1 33 -1 60 -2 26 -2 47 0 47 4
0 3 8 4 19 1 26 -7 32 8 31 74 0 32 -1 85 0 118 0 33 0 71 -1 85 -4 112 -3
132 3 136 3 2 3 17 0 32 -4 15 -6 50 -4 77 1 28 2 61 1 75 0 14 0 41 0 60 0
19 0 55 0 80 0 25 0 70 0 100 1 30 1 66 0 80 -4 112 -3 132 3 136 3 2 3 17 0
32 -4 15 -6 50 -5 77 4 63 4 60 3 125 0 59 0 71 -3 140 -2 25 1 53 6 63 4 9 4
17 0 17 -10 0 -9 222 1 238 4 7 2 12 -4 12 -6 0 -9 4 -6 8 7 12 8 56 2 202 -6
158 -17 257 -40 370 -3 14 -11 50 -17 80 -24 115 -104 314 -161 397 -15 23
-28 45 -28 49 0 10 -15 26 -126 139 -87 88 -128 125 -140 125 -3 0 -18 9 -33
20 -71 50 -278 136 -376 156 -11 2 -30 6 -42 9 -13 3 -33 7 -45 10 -48 10
-186 27 -240 28 -32 1 -58 5 -58 10 0 4 -5 5 -11 1 -16 -10 -178 -11 -182 -1
-1 5 -6 5 -10 1z m969 -1872 c-6 -156 -8 -185 -20 -252 -15 -82 -18 -96 -26
-120 -4 -14 -16 -49 -24 -78 -75 -243 -256 -466 -465 -572 -59 -30 -157 -68
-196 -75 -11 -2 -33 -7 -50 -10 -97 -19 -211 -24 -305 -14 -139 16 -187 29
-295 83 -161 81 -274 239 -300 419 -12 80 -7 232 10 297 30 114 65 180 137
252 82 82 156 119 328 162 109 28 211 44 324 51 44 3 81 6 82 8 2 2 184 4 405
5 l401 2 -6 -158z"/>
</g>
</svg>
